<svg width="150" height="146" viewBox="0 0 150 146" fill="none" xmlns="http://www.w3.org/2000/svg">
<g style="mix-blend-mode:multiply">
<path d="M71.9545 100.72L46.774 57.4443L63.271 57.6041L72.8957 74.1366L97.579 37.9995V0.157715H0V101.75H97.579V63.1446L71.9545 100.72Z" fill="#87C790"/>
</g>
<g style="mix-blend-mode:multiply">
<path d="M141.192 37.8752L72.2031 145.843L9.64246 37.8752H97.6678L72.8957 74.1366L63.271 57.6041L46.774 57.4443L71.9545 100.72L114.822 37.8752H141.192Z" fill="#2869AC"/>
</g>
<g style="mix-blend-mode:multiply">
<path d="M135.226 29.7245C143.385 29.7245 150 23.1097 150 14.95C150 6.7903 143.385 0.175537 135.226 0.175537C127.066 0.175537 120.451 6.7903 120.451 14.95C120.451 23.1097 127.066 29.7245 135.226 29.7245Z" fill="#2869AC"/>
</g>
</svg>
