<svg xmlns="http://www.w3.org/2000/svg" viewBox="0 0 300 100.45"><defs><style>.st1{mix-blend-mode:multiply}.st2{fill:#2869ac}.st3{fill:#87c790}</style></defs><g style="isolation:isolate"><g id="_레이어_1" data-name="레이어_1"><path d="M139.64 34.71v30.8h-6.74V53h-13.33v12.51h-6.74v-30.8h6.74v12.21h13.33V34.71zM152.12 36.79c0 2.38-1.7 4.12-4.04 4.12s-4.04-1.74-4.04-4.12 1.7-4.12 4.04-4.12 4.04 1.74 4.04 4.12m-.74 28.8h-6.59V43.37h6.59z" class="st3"/><path d="M156.53 34.71h5.37l10.4 17.23 10.4-17.23h5.37v30.8h-6.74V48.62l-7 11.83h-4.07l-7-11.83v16.89h-6.74v-30.8ZM192.12 54.44c0-6.73 4.33-11.6 10.55-11.6 2.85 0 4.92 1.02 6.22 2.8v-2.27h6.59v22.15h-6.59v-2.27c-1.3 1.77-3.37 2.8-6.22 2.8-6.22 0-10.55-4.87-10.55-11.6Zm16.89 0c0-3.4-2.07-5.86-5.3-5.86s-5.15 2.46-5.15 5.86 2 5.86 5.15 5.86 5.3-2.46 5.3-5.86M233.75 49.15h-4.29v16.36h-6.59V49.15h-4.29v-5.78h4.29v-6.58h6.59v6.58h4.29zM246.75 66.04c-6.7 0-11.52-4.87-11.52-11.6s4.81-11.6 11.52-11.6c5.67 0 9.92 3.7 10.7 8.43h-6.67c-.52-1.51-1.96-2.57-4.03-2.57-3.07 0-5.07 2.42-5.07 5.74s2 5.74 5.07 5.74c2.04 0 3.55-1.06 4.15-2.64h6.66c-1.11 5.14-5.33 8.5-10.81 8.5M261.13 33.77h6.59v11.87c1.3-1.78 3.3-2.8 6.07-2.8 5.04 0 8.48 3.74 8.48 9.86v12.81h-6.59V53.83c0-3.36-1.33-5.21-3.81-5.21s-4.15 2.08-4.15 5.52v11.38h-6.59z" class="st2"/><g class="st1"><path d="M59.48 68.59 45.3 44.22l9.29.09 5.42 9.31 13.9-20.35V11.96H18.96v57.21h54.95V47.43z" class="st3"/></g><g class="st1"><path d="M98.47 33.2 59.62 94 24.39 33.2h49.57L60.01 53.62l-5.42-9.31-9.29-.09 14.18 24.37L83.62 33.2z" class="st2"/></g><g class="st1"><circle cx="95.11" cy="20.29" r="8.32" class="st2"/></g></g></g></svg>