<svg width="131" height="25" viewBox="0 0 131 25" fill="none" xmlns="http://www.w3.org/2000/svg">
<path d="M0.90625 1.375H5.59375V10.75H15.4062V1.375H20.125V24H15.4062V14.625H5.59375V24H0.90625V1.375ZM23.8438 7.03125H28.4688V24H23.8438V7.03125ZM26.1562 4.8125C25.6979 4.8125 25.2708 4.70833 24.875 4.5C24.4896 4.28125 24.1823 3.99479 23.9531 3.64062C23.7344 3.27604 23.625 2.88542 23.625 2.46875C23.625 2.04167 23.7344 1.64583 23.9531 1.28125C24.1823 0.916667 24.4896 0.630208 24.875 0.421875C25.2708 0.203125 25.6979 0.09375 26.1562 0.09375C26.6042 0.09375 27.0208 0.203125 27.4062 0.421875C27.7917 0.630208 28.0938 0.916667 28.3125 1.28125C28.5417 1.64583 28.6562 2.04167 28.6562 2.46875C28.6562 2.88542 28.5417 3.27604 28.3125 3.64062C28.0938 3.99479 27.7917 4.28125 27.4062 4.5C27.0208 4.70833 26.6042 4.8125 26.1562 4.8125ZM45.3438 1.375L51.625 16.7188H51.875L58.1562 1.375H63.9688V24H59.4062V9.1875H59.2188L53.3125 23.9062H50.1875L44.2812 9.125H44.0938V24H39.5312V1.375H45.3438ZM66.875 19.25C66.875 17.5 67.4635 16.2188 68.6406 15.4062C69.8177 14.5938 71.3333 14.1354 73.1875 14.0312C74.3333 13.9583 75.7396 13.8854 77.4062 13.8125V12.4375C77.3854 11.7292 77.1406 11.1771 76.6719 10.7812C76.2031 10.3854 75.5417 10.1875 74.6875 10.1875C73.9167 10.1875 73.2865 10.3542 72.7969 10.6875C72.3073 11.0208 72 11.4792 71.875 12.0625H67.4688C67.5625 11.0625 67.9062 10.1667 68.5 9.375C69.1042 8.58333 69.9427 7.95833 71.0156 7.5C72.0885 7.04167 73.3542 6.8125 74.8125 6.8125C76.1042 6.8125 77.2917 7.01562 78.375 7.42188C79.4688 7.82812 80.3438 8.46354 81 9.32812C81.6667 10.1823 82 11.2604 82 12.5625V24H77.625V21.6562H77.5C77.0521 22.4792 76.4115 23.1302 75.5781 23.6094C74.7552 24.0781 73.7396 24.3125 72.5312 24.3125C71.4271 24.3125 70.4479 24.125 69.5938 23.75C68.75 23.3646 68.0833 22.7917 67.5938 22.0312C67.1146 21.2708 66.875 20.3438 66.875 19.25ZM71.3125 19.125C71.3125 19.7604 71.5417 20.2552 72 20.6094C72.4688 20.9531 73.0833 21.125 73.8438 21.125C74.5312 21.125 75.1458 20.9844 75.6875 20.7031C76.2396 20.4219 76.6667 20.0365 76.9688 19.5469C77.2708 19.0573 77.4167 18.5208 77.4062 17.9375V16.7031C76.9167 16.7135 76.3125 16.7396 75.5938 16.7812C74.875 16.8229 74.3229 16.8646 73.9375 16.9062C73.125 16.9896 72.4844 17.2188 72.0156 17.5938C71.5469 17.9688 71.3125 18.4792 71.3125 19.125ZM94.4688 10.5H91.2812V18.7812C91.2812 19.4062 91.4167 19.8438 91.6875 20.0938C91.9583 20.3438 92.3542 20.4792 92.875 20.5C93.5417 20.5 94.1562 20.4688 94.7188 20.4062V24.0625C94.1667 24.1667 93.3438 24.2188 92.25 24.2188C90.5104 24.2188 89.1406 23.8177 88.1406 23.0156C87.1406 22.2135 86.6458 21.0208 86.6562 19.4375V10.5H84.3125V7.03125H86.6562V2.96875H91.2812V7.03125H94.4688V10.5ZM104.812 24.3438C103.115 24.3438 101.635 23.974 100.375 23.2344C99.125 22.4948 98.1667 21.4635 97.5 20.1406C96.8333 18.8177 96.5 17.2917 96.5 15.5625C96.5 13.8333 96.8333 12.3125 97.5 11C98.1771 9.67708 99.1406 8.65104 100.391 7.92188C101.651 7.18229 103.125 6.8125 104.812 6.8125C106.26 6.8125 107.542 7.07812 108.656 7.60938C109.771 8.14062 110.646 8.89583 111.281 9.875C111.927 10.8438 112.281 11.9688 112.344 13.25H108C107.854 12.3854 107.51 11.6979 106.969 11.1875C106.427 10.6667 105.729 10.4062 104.875 10.4062C104.135 10.4062 103.484 10.6094 102.922 11.0156C102.37 11.4115 101.943 11.9948 101.641 12.7656C101.339 13.5365 101.188 14.4479 101.188 15.5C101.188 16.5833 101.339 17.5104 101.641 18.2812C101.943 19.0521 102.37 19.6406 102.922 20.0469C103.474 20.4531 104.125 20.6562 104.875 20.6562C105.698 20.6562 106.391 20.4115 106.953 19.9219C107.516 19.4323 107.865 18.7396 108 17.8438H112.344C112.271 19.125 111.922 20.2552 111.297 21.2344C110.672 22.2135 109.802 22.9792 108.688 23.5312C107.583 24.0729 106.292 24.3438 104.812 24.3438ZM119.844 24H115.219V1.375H119.719V10H119.906C120.302 8.98958 120.932 8.20833 121.797 7.65625C122.661 7.09375 123.719 6.8125 124.969 6.8125C126.146 6.8125 127.177 7.06771 128.062 7.57812C128.948 8.08854 129.63 8.82292 130.109 9.78125C130.599 10.7396 130.844 11.875 130.844 13.1875V24H126.219V14C126.219 12.9479 125.948 12.1302 125.406 11.5469C124.875 10.9531 124.125 10.6562 123.156 10.6562C122.51 10.6562 121.938 10.7969 121.438 11.0781C120.938 11.349 120.547 11.75 120.266 12.2812C119.984 12.8125 119.844 13.4479 119.844 14.1875V24Z" fill="#007AFF"/>
</svg>
