<?xml version="1.0" encoding="UTF-8"?>
<svg xmlns="http://www.w3.org/2000/svg" id="Layer_1" data-name="Layer 1" viewBox="0 0 24 24">
<path d="M3.99987 6.00006C3.60562 6.00109 3.21508 5.92394 2.85084 5.77306C2.48661 5.62218 2.1559 5.40057 1.87787 5.12106L0.333868 3.74706C0.135751 3.57042 0.0159167 3.32232 0.000726292 3.05733C-0.0144642 2.79234 0.076234 2.53217 0.252868 2.33406C0.429502 2.13594 0.677604 2.0161 0.942593 2.00091C1.20758 1.98572 1.46775 2.07642 1.66587 2.25306L3.25087 3.66706C3.3416 3.76895 3.45223 3.8512 3.57595 3.90874C3.69966 3.96629 3.83384 3.9979 3.97023 4.00165C4.10661 4.0054 4.24233 3.9812 4.36901 3.93053C4.4957 3.87987 4.61067 3.80382 4.70687 3.70706L8.31087 0.276055C8.50466 0.103525 8.75793 0.0130738 9.01717 0.0238058C9.27642 0.0345378 9.52134 0.145613 9.70021 0.33357C9.87908 0.521527 9.97789 0.771649 9.97578 1.03111C9.97366 1.29056 9.87078 1.53904 9.68887 1.72405L6.09987 5.13806C5.82364 5.41267 5.49599 5.63015 5.13566 5.77806C4.77533 5.92597 4.38937 6.00141 3.99987 6.00006V6.00006ZM23.9999 4.00006C23.9999 3.73484 23.8945 3.48048 23.707 3.29295C23.5194 3.10541 23.2651 3.00006 22.9999 3.00006H12.9999C12.7347 3.00006 12.4803 3.10541 12.2928 3.29295C12.1052 3.48048 11.9999 3.73484 11.9999 4.00006C11.9999 4.26527 12.1052 4.51963 12.2928 4.70716C12.4803 4.8947 12.7347 5.00006 12.9999 5.00006H22.9999C23.2651 5.00006 23.5194 4.8947 23.707 4.70716C23.8945 4.51963 23.9999 4.26527 23.9999 4.00006ZM6.09987 13.1381L9.68887 9.72406C9.78904 9.63488 9.87025 9.52646 9.92766 9.40525C9.98508 9.28404 10.0175 9.15253 10.0231 9.01852C10.0286 8.88452 10.0072 8.75077 9.95995 8.62523C9.91275 8.4997 9.84078 8.38493 9.74833 8.28778C9.65587 8.19063 9.54481 8.11306 9.42177 8.0597C9.29872 8.00635 9.1662 7.97829 9.03208 7.97719C8.89797 7.9761 8.76501 8.00199 8.64111 8.05334C8.51721 8.10468 8.4049 8.18042 8.31087 8.27606L4.71087 11.7071C4.5205 11.8891 4.26726 11.9907 4.00387 11.9907C3.74048 11.9907 3.48724 11.8891 3.29687 11.7071L1.70687 10.1221C1.51827 9.9399 1.26566 9.8391 1.00347 9.84138C0.74127 9.84366 0.490458 9.94883 0.30505 10.1342C0.119641 10.3196 0.0144726 10.5705 0.0121941 10.8327C0.00991571 11.0949 0.11071 11.3475 0.292868 11.5361L1.87787 13.1211C2.43754 13.6809 3.19578 13.9968 3.98737 14C4.77895 14.0031 5.53971 13.6933 6.10387 13.1381H6.09987ZM23.9999 12.0001C23.9999 11.7348 23.8945 11.4805 23.707 11.2929C23.5194 11.1054 23.2651 11.0001 22.9999 11.0001H12.9999C12.7347 11.0001 12.4803 11.1054 12.2928 11.2929C12.1052 11.4805 11.9999 11.7348 11.9999 12.0001C11.9999 12.2653 12.1052 12.5196 12.2928 12.7072C12.4803 12.8947 12.7347 13.0001 12.9999 13.0001H22.9999C23.2651 13.0001 23.5194 12.8947 23.707 12.7072C23.8945 12.5196 23.9999 12.2653 23.9999 12.0001ZM6.09987 21.1381L9.68487 17.7241C9.78504 17.6349 9.86625 17.5265 9.92366 17.4053C9.98108 17.284 10.0135 17.1525 10.0191 17.0185C10.0246 16.8845 10.0032 16.7508 9.95595 16.6252C9.90875 16.4997 9.83678 16.3849 9.74433 16.2878C9.65187 16.1906 9.54081 16.1131 9.41777 16.0597C9.29472 16.0063 9.1622 15.9783 9.02808 15.9772C8.89397 15.9761 8.76101 16.002 8.63711 16.0533C8.51321 16.1047 8.4009 16.1804 8.30687 16.2761L4.70687 19.7071C4.61067 19.8038 4.4957 19.8799 4.36901 19.9305C4.24233 19.9812 4.10661 20.0054 3.97023 20.0017C3.83384 19.9979 3.69966 19.9663 3.57595 19.9087C3.45223 19.8512 3.3416 19.769 3.25087 19.6671L1.66587 18.2531C1.46775 18.0764 1.20758 17.9857 0.942593 18.0009C0.677604 18.0161 0.429502 18.1359 0.252868 18.3341C0.076234 18.5322 -0.0144642 18.7923 0.000726292 19.0573C0.0159167 19.3223 0.135751 19.5704 0.333868 19.7471L1.87787 21.1211C2.43754 21.6809 3.19578 21.9968 3.98737 22C4.77895 22.0031 5.53971 21.6933 6.10387 21.1381H6.09987ZM23.9999 20.0001C23.9999 19.7348 23.8945 19.4805 23.707 19.293C23.5194 19.1054 23.2651 19.0001 22.9999 19.0001H12.9999C12.7347 19.0001 12.4803 19.1054 12.2928 19.293C12.1052 19.4805 11.9999 19.7348 11.9999 20.0001C11.9999 20.2653 12.1052 20.5196 12.2928 20.7072C12.4803 20.8947 12.7347 21.0001 12.9999 21.0001H22.9999C23.2651 21.0001 23.5194 20.8947 23.707 20.7072C23.8945 20.5196 23.9999 20.2653 23.9999 20.0001Z"/>
</svg>
