<svg width="100" height="100" viewBox="0 0 100 100" fill="none" xmlns="http://www.w3.org/2000/svg">
<path d="M16.667 91.6666C16.667 82.8261 20.1789 74.3476 26.4301 68.0964C32.6813 61.8452 41.1598 58.3333 50.0003 58.3333C58.8409 58.3333 67.3193 61.8452 73.5706 68.0964C79.8218 74.3476 83.3337 82.8261 83.3337 91.6666H75.0003C75.0003 85.0362 72.3664 78.6774 67.678 73.989C62.9896 69.3005 56.6307 66.6666 50.0003 66.6666C43.3699 66.6666 37.0111 69.3005 32.3227 73.989C27.6342 78.6774 25.0003 85.0362 25.0003 91.6666H16.667ZM50.0003 54.1666C36.1878 54.1666 25.0003 42.9791 25.0003 29.1666C25.0003 15.3541 36.1878 4.16663 50.0003 4.16663C63.8128 4.16663 75.0003 15.3541 75.0003 29.1666C75.0003 42.9791 63.8128 54.1666 50.0003 54.1666ZM50.0003 45.8333C59.2087 45.8333 66.667 38.375 66.667 29.1666C66.667 19.9583 59.2087 12.5 50.0003 12.5C40.792 12.5 33.3337 19.9583 33.3337 29.1666C33.3337 38.375 40.792 45.8333 50.0003 45.8333Z" fill="white" fill-opacity="0.2"/>
</svg>
